# xmcd
#
# Track frame offsets: 
#        150
#        14329
#        24609
#        41188
#        57055
#        67192
#        80352
#        100289
#        111439
#        123760
#        141612
#        156543
#
# Disc length: 2176 seconds
#
# Revision: 1
# Processed by: cddbd v1.5.2PL0 Copyright (c) Steve Scherf et al.
# Submitted via: ExactAudioCopyFreeDBPlugin 1.0
#
DISCID=ae087e0c
DTITLE=f.w. smolls and anne-marie stage - ...and that's how the bird s
DTITLE=ings
DYEAR=2016
DGENRE=Blues
TTITLE0=black water
TTITLE1=what did you learn at school today
TTITLE2=it ain't you and me
TTITLE3=walking down the line
TTITLE4=can't wait
TTITLE5=corrina
TTITLE6=grandma
TTITLE7=peter on the sea
TTITLE8=hard times new york town
TTITLE9=lonesome vallay
TTITLE10=she said no
TTITLE11=minnie the mermaid
EXTD=YEAR: 2016
EXTT0=
EXTT1=
EXTT2=
EXTT3=
EXTT4=
EXTT5=
EXTT6=
EXTT7=
EXTT8=
EXTT9=
EXTT10=
EXTT11=
PLAYORDER=
